<svg xmlns="http://www.w3.org/2000/svg" width="360.108" height="257.347" viewBox="0 0 360.108 257.347"><g transform="translate(528.963 -1703.821)"><g transform="translate(-528.963 1703.821)"><rect width="360.108" height="257.347" rx="44" fill="#fff"/><text transform="translate(140.29 176.396)" fill="#212121" font-size="35" font-family="Poppins-Regular, Poppins" letter-spacing="0.04em"><tspan x="0" y="0">Kids</tspan></text><text transform="translate(57.505 212.33)" fill="#a8a8a8" font-size="21" font-family="Poppins-Light, Poppins" font-weight="300" letter-spacing="0.08em"><tspan x="0" y="0">kids friendly Travel</tspan></text><path d="M44.5,44.5a22.25,22.25,0,0,1,44.5,0Zm0,0A22.447,22.447,0,0,1,22.25,66.75,22.447,22.447,0,0,1,0,44.5Zm0,0A22.447,22.447,0,0,1,22.25,22.25,22.447,22.447,0,0,1,44.5,0Zm0,0a22.25,22.25,0,1,1,0,44.5Z" transform="matrix(0.799, -0.602, 0.602, 0.799, 117.951, 78.811)"/></g></g></svg>